<?xml version="1.0" encoding="UTF-8" standalone="no"?>
<!DOCTYPE svg PUBLIC "-//W3C//DTD SVG 1.1//EN"
 "http://www.w3.org/Graphics/SVG/1.1/DTD/svg11.dtd">
<!-- Generated by graphviz version 2.38.0 (20140413.2041)
 -->
<!-- Title: G Pages: 1 -->
<svg width="614pt" height="662pt"
 viewBox="0.00 0.00 614.00 662.00" xmlns="http://www.w3.org/2000/svg" xmlns:xlink="http://www.w3.org/1999/xlink">
<g id="graph0" class="graph" transform="scale(1 1) rotate(0) translate(36 626)">
<title>G</title>
<polygon fill="#f7f7f7" stroke="none" points="-36,36 -36,-626 578,-626 578,36 -36,36"/>
<!-- appcategory -->
<g id="node1" class="node"><title>appcategory</title>
<polygon fill="none" stroke="black" points="196.5,-185 19.5,-185 19.5,-0 196.5,-0 196.5,-185"/>
<polygon fill="#d3d3d3" stroke="none" points="20,-147.5 20,-184.5 197,-184.5 197,-147.5 20,-147.5"/>
<polygon fill="none" stroke="black" points="20,-147.5 20,-184.5 197,-184.5 197,-147.5 20,-147.5"/>
<text text-anchor="start" x="76.5" y="-162.3" font-family="Helvetica Neue" font-size="14.00" fill="#333333">Category</text>
<polygon fill="#ffffff" stroke="none" points="20,-110.5 20,-147.5 197,-147.5 197,-110.5 20,-110.5"/>
<polygon fill="none" stroke="black" points="20,-110.5 20,-147.5 197,-147.5 197,-110.5 20,-110.5"/>
<text text-anchor="start" x="31" y="-125.3" font-family="Helvetica Neue" font-size="14.00" fill="#333333">id (bigint)</text>
<polygon fill="#ffffff" stroke="none" points="20,-73.5 20,-110.5 197,-110.5 197,-73.5 20,-73.5"/>
<polygon fill="none" stroke="black" points="20,-73.5 20,-110.5 197,-110.5 197,-73.5 20,-73.5"/>
<text text-anchor="start" x="31" y="-88.3" font-family="Helvetica Neue" font-size="14.00" fill="#333333">name (string)</text>
<polygon fill="#ffffff" stroke="none" points="20,-36.5 20,-73.5 197,-73.5 197,-36.5 20,-36.5"/>
<polygon fill="none" stroke="black" points="20,-36.5 20,-73.5 197,-73.5 197,-36.5 20,-36.5"/>
<text text-anchor="start" x="31" y="-51.3" font-family="Helvetica Neue" font-size="14.00" fill="#333333">created_at (datetime)</text>
<polygon fill="#ffffff" stroke="none" points="20,0.5 20,-36.5 197,-36.5 197,0.5 20,0.5"/>
<polygon fill="none" stroke="black" points="20,0.5 20,-36.5 197,-36.5 197,0.5 20,0.5"/>
<text text-anchor="start" x="31" y="-14.3" font-family="Helvetica Neue" font-size="14.00" fill="#333333">updated_at (datetime)</text>
</g>
<!-- apprequisition -->
<g id="node2" class="node"><title>apprequisition</title>
<polygon fill="none" stroke="black" points="542,-371 365,-371 365,-112 542,-112 542,-371"/>
<polygon fill="#d3d3d3" stroke="none" points="365.5,-333.5 365.5,-370.5 542.5,-370.5 542.5,-333.5 365.5,-333.5"/>
<polygon fill="none" stroke="black" points="365.5,-333.5 365.5,-370.5 542.5,-370.5 542.5,-333.5 365.5,-333.5"/>
<text text-anchor="start" x="416" y="-348.3" font-family="Helvetica Neue" font-size="14.00" fill="#333333">Requisition</text>
<polygon fill="#ffffff" stroke="none" points="365.5,-296.5 365.5,-333.5 542.5,-333.5 542.5,-296.5 365.5,-296.5"/>
<polygon fill="none" stroke="black" points="365.5,-296.5 365.5,-333.5 542.5,-333.5 542.5,-296.5 365.5,-296.5"/>
<text text-anchor="start" x="376.5" y="-311.3" font-family="Helvetica Neue" font-size="14.00" fill="#333333">id (bigint)</text>
<polygon fill="#ffffff" stroke="none" points="365.5,-259.5 365.5,-296.5 542.5,-296.5 542.5,-259.5 365.5,-259.5"/>
<polygon fill="none" stroke="black" points="365.5,-259.5 365.5,-296.5 542.5,-296.5 542.5,-259.5 365.5,-259.5"/>
<text text-anchor="start" x="376.5" y="-274.3" font-family="Helvetica Neue" font-size="14.00" fill="#333333">topic (string)</text>
<polygon fill="#ffffff" stroke="none" points="365.5,-222.5 365.5,-259.5 542.5,-259.5 542.5,-222.5 365.5,-222.5"/>
<polygon fill="none" stroke="black" points="365.5,-222.5 365.5,-259.5 542.5,-259.5 542.5,-222.5 365.5,-222.5"/>
<text text-anchor="start" x="376.5" y="-237.3" font-family="Helvetica Neue" font-size="14.00" fill="#333333">description (text)</text>
<polygon fill="#ffffff" stroke="none" points="365.5,-185.5 365.5,-222.5 542.5,-222.5 542.5,-185.5 365.5,-185.5"/>
<polygon fill="none" stroke="black" points="365.5,-185.5 365.5,-222.5 542.5,-222.5 542.5,-185.5 365.5,-185.5"/>
<text text-anchor="start" x="376.5" y="-200.3" font-family="Helvetica Neue" font-size="14.00" fill="#333333">created_at (datetime)</text>
<polygon fill="#ffffff" stroke="none" points="365.5,-148.5 365.5,-185.5 542.5,-185.5 542.5,-148.5 365.5,-148.5"/>
<polygon fill="none" stroke="black" points="365.5,-148.5 365.5,-185.5 542.5,-185.5 542.5,-148.5 365.5,-148.5"/>
<text text-anchor="start" x="376.5" y="-163.3" font-family="Helvetica Neue" font-size="14.00" fill="#333333">updated_at (datetime)</text>
<polygon fill="#ffffff" stroke="none" points="365.5,-111.5 365.5,-148.5 542.5,-148.5 542.5,-111.5 365.5,-111.5"/>
<polygon fill="none" stroke="black" points="365.5,-111.5 365.5,-148.5 542.5,-148.5 542.5,-111.5 365.5,-111.5"/>
<text text-anchor="start" x="376.5" y="-126.3" font-family="Helvetica Neue" font-size="14.00" fill="#333333">category_id (bigint)</text>
</g>
<!-- appcategory&#45;&gt;apprequisition -->
<g id="edge1" class="edge"><title>appcategory:id&#45;&gt;apprequisition:category_id</title>
<path fill="none" stroke="#fcbf49" stroke-width="1.8" d="M198,-129.5C198,-129.5 318.547,-129.5 354.805,-129.5"/>
<polygon fill="#fcbf49" stroke="#fcbf49" stroke-width="1.8" points="355,-129.5 365,-134 360,-129.5 365,-129.5 365,-129.5 365,-129.5 360,-129.5 365,-125 355,-129.5 355,-129.5"/>
<text text-anchor="middle" x="290.5" y="-133.3" font-family="Helvetica Neue" font-size="14.00"> </text>
<text text-anchor="middle" x="236.402" y="-118.3" font-family="Helvetica Neue" font-size="14.00">HasMany</text>
<text text-anchor="middle" x="236.402" y="-103.3" font-family="Helvetica Neue" font-size="14.00">requisitions</text>
</g>
<!-- appuser -->
<g id="node3" class="node"><title>appuser</title>
<polygon fill="none" stroke="black" points="216,-590 0,-590 0,-257 216,-257 216,-590"/>
<polygon fill="#d3d3d3" stroke="none" points="0,-552.5 0,-589.5 216,-589.5 216,-552.5 0,-552.5"/>
<polygon fill="none" stroke="black" points="0,-552.5 0,-589.5 216,-589.5 216,-552.5 0,-552.5"/>
<text text-anchor="start" x="92" y="-567.3" font-family="Helvetica Neue" font-size="14.00" fill="#333333">User</text>
<polygon fill="#ffffff" stroke="none" points="0,-515.5 0,-552.5 216,-552.5 216,-515.5 0,-515.5"/>
<polygon fill="none" stroke="black" points="0,-515.5 0,-552.5 216,-552.5 216,-515.5 0,-515.5"/>
<text text-anchor="start" x="11" y="-530.3" font-family="Helvetica Neue" font-size="14.00" fill="#333333">id (bigint)</text>
<polygon fill="#ffffff" stroke="none" points="0,-478.5 0,-515.5 216,-515.5 216,-478.5 0,-478.5"/>
<polygon fill="none" stroke="black" points="0,-478.5 0,-515.5 216,-515.5 216,-478.5 0,-478.5"/>
<text text-anchor="start" x="11" y="-493.3" font-family="Helvetica Neue" font-size="14.00" fill="#333333">name (string)</text>
<polygon fill="#ffffff" stroke="none" points="0,-441.5 0,-478.5 216,-478.5 216,-441.5 0,-441.5"/>
<polygon fill="none" stroke="black" points="0,-441.5 0,-478.5 216,-478.5 216,-441.5 0,-441.5"/>
<text text-anchor="start" x="11" y="-456.3" font-family="Helvetica Neue" font-size="14.00" fill="#333333">email (string)</text>
<polygon fill="#ffffff" stroke="none" points="0,-404.5 0,-441.5 216,-441.5 216,-404.5 0,-404.5"/>
<polygon fill="none" stroke="black" points="0,-404.5 0,-441.5 216,-441.5 216,-404.5 0,-404.5"/>
<text text-anchor="start" x="11" y="-419.3" font-family="Helvetica Neue" font-size="14.00" fill="#333333">email_verified_at (datetime)</text>
<polygon fill="#ffffff" stroke="none" points="0,-367.5 0,-404.5 216,-404.5 216,-367.5 0,-367.5"/>
<polygon fill="none" stroke="black" points="0,-367.5 0,-404.5 216,-404.5 216,-367.5 0,-367.5"/>
<text text-anchor="start" x="11" y="-382.3" font-family="Helvetica Neue" font-size="14.00" fill="#333333">password (string)</text>
<polygon fill="#ffffff" stroke="none" points="0,-330.5 0,-367.5 216,-367.5 216,-330.5 0,-330.5"/>
<polygon fill="none" stroke="black" points="0,-330.5 0,-367.5 216,-367.5 216,-330.5 0,-330.5"/>
<text text-anchor="start" x="11" y="-345.3" font-family="Helvetica Neue" font-size="14.00" fill="#333333">remember_token (string)</text>
<polygon fill="#ffffff" stroke="none" points="0,-293.5 0,-330.5 216,-330.5 216,-293.5 0,-293.5"/>
<polygon fill="none" stroke="black" points="0,-293.5 0,-330.5 216,-330.5 216,-293.5 0,-293.5"/>
<text text-anchor="start" x="11" y="-308.3" font-family="Helvetica Neue" font-size="14.00" fill="#333333">created_at (datetime)</text>
<polygon fill="#ffffff" stroke="none" points="0,-256.5 0,-293.5 216,-293.5 216,-256.5 0,-256.5"/>
<polygon fill="none" stroke="black" points="0,-256.5 0,-293.5 216,-293.5 216,-256.5 0,-256.5"/>
<text text-anchor="start" x="11" y="-271.3" font-family="Helvetica Neue" font-size="14.00" fill="#333333">updated_at (datetime)</text>
</g>
</g>
</svg>
